<svg xmlns="http://www.w3.org/2000/svg" width="227.101" height="79.228"><g transform="translate(-19.994 -18.427)"><rect data-name="Rectangle 37" width="78.962" height="78.962" transform="translate(19.994 18.427)" fill="#0065bd"/><g data-name="Group 38"><path data-name="Path 20" d="m83.993 52.67 2.023-1.477a4.753 4.753 0 0 1-1.585-3.389 3.711 3.711 0 0 1 1.858-3.061 3.4 3.4 0 0 0-2.678-1.256 2.776 2.776 0 0 0-1.474 5.246 5.3 5.3 0 0 0 1.858 3.936M73.17 41.9l1.695-3.007H72.35a1.184 1.184 0 0 1-1.094 1.148 1.048 1.048 0 0 1-1.092-1.148h-2.242a1.095 1.095 0 1 1-2.187 0h-2.514l1.477 2.9a35.011 35.011 0 0 1 3.335-.163 44.16 44.16 0 0 1 5.139.274m-4.594 26.673a4.076 4.076 0 0 1-.547-2.186 3.679 3.679 0 0 1 2.57-3.39c1.148-.546 2.021-1.038 3.553-1.8 3.608-1.859 4.865-5.357 4.865-8.966a9.618 9.618 0 0 0-1.093-4.428 16.269 16.269 0 0 1 .327 2.788c0 3.772-1.311 6.56-4.756 8.254-2.186 1.093-3.28 1.531-4.592 2.187-1.857.984-2.9 2.241-2.9 3.772a3.636 3.636 0 0 0 2.57 3.771m-2.132-.71a4.462 4.462 0 0 1-1.257-3.116c0-1.8 1.2-3.334 3.334-4.428 1.859-.875 2.951-1.312 4.591-2.077 3.445-1.694 4.483-4.592 4.483-7.707a7.9 7.9 0 0 0-1.8-5.522 8.036 8.036 0 0 1 .766 3.664c0 3.334-.984 6.231-4.865 7.762-1.969.82-3.226 1.093-4.92 1.858-2.68 1.259-3.718 2.734-3.718 4.92a4.807 4.807 0 0 0 3.39 4.647m-2.077-.438a5.263 5.263 0 0 1-2.133-4.267c0-2.35.984-4.1 4.045-5.411 1.969-.82 3.007-1.2 4.866-1.913 3.936-1.476 4.756-4.374 4.756-7.216a6.574 6.574 0 0 0-2.187-5.357 6.418 6.418 0 0 1 1.149 3.881c0 3.608-1.367 5.631-5.248 7-1.585.492-3.28.983-5.029 1.639-3.17 1.2-4.81 2.951-4.81 5.9a5.88 5.88 0 0 0 4.591 5.74m-2.187-.382a6.16 6.16 0 0 1-3.227-5.524c0-3.007 1.859-5.139 4.974-6.287 1.915-.71 3.444-1.147 5.358-1.8 3.718-1.312 4.92-3.061 4.92-6.4a5.705 5.705 0 0 0-1.859-4.482 2.191 2.191 0 0 1 .492 1.476c0 .929-.492 1.366-1.2 1.366a.894.894 0 0 1-.929-.71.936.936 0 0 0 1.531-.82c0-.929-.874-1.422-1.749-1.53a18.061 18.061 0 0 0-2.515-.11c-.928 0-1.8.055-2.952.11.711.984 3.062.711 3.771 1.2a5.074 5.074 0 0 0-1.8.109c0 .383-.163.82-.546.82-.711 0-1.039-.765-1.531-2.132l-2.788.219c-.438.054-.6.218-.548.546l.274 2.733c0 .109.11.163.22.163a.278.278 0 0 0 .272-.219 1.314 1.314 0 0 1 1.258-.711 2.34 2.34 0 0 1 2.178 2.359 3.658 3.658 0 0 0-3.061-1.148c-1.257 0-2.295.383-3.935.383-1.749 0-2.733-.656-2.733-1.476a1.2 1.2 0 0 1 .273-.875 2.006 2.006 0 0 0-1.257 1.916c0 1.2.875 2.461 3.444 2.461 2.35 0 3.445-1.477 5.576-1.477.985 0 1.477.492 1.477 1.039 0 .492-.438.929-1.2.929a2.275 2.275 0 0 1-1.913-.985c-.055-.109-.11-.163-.219-.163a.2.2 0 0 0-.218.218l.056 2.624c0 .328.163.492.547.438 1.639-.165 3.334-.383 4.92-.492 2.952-.273 4.975-2.242 4.975-4.428a5.3 5.3 0 0 0-.055-.929 2.532 2.532 0 0 1 .382 1.421c0 2.023-1.093 3.554-4.591 4.483-1.859.492-3.226.71-4.812 1.093-4.209.984-6.941 4.209-6.941 7.817a6.735 6.735 0 0 0 5.685 6.778M43.868 47.312a3.074 3.074 0 0 0 .274-1.257 2.287 2.287 0 0 0-.656-1.639 1.47 1.47 0 0 1 1.53 1.421 1.526 1.526 0 0 1-1.147 1.476m10.058 13.009 1.749-.93a8.29 8.29 0 0 1 6.614-7.161c-2.023.109-3.772.164-6.231.273-2.624.109-6.942.438-9.949.656a.97.97 0 0 1-1.149-.656 14.3 14.3 0 0 1-.546-2.187 1.1 1.1 0 0 1 .492-1.148 3.214 3.214 0 0 0 1.75-2.787 2.657 2.657 0 0 0-2.62-2.623 2.762 2.762 0 0 0-1.038.163 2.09 2.09 0 0 0-1.312-.382 2.294 2.294 0 0 0-1.968 1.093 2.434 2.434 0 0 0-2.734 2.57 1.7 1.7 0 0 1 1.149-.437 1.108 1.108 0 0 1 1.147 1.093c0 .6-.109 1.367-.109 2.186 0 2.516 2.023 3.828 2.023 5.139a1.168 1.168 0 0 1-1.149 1.2c.383 1.367 1.64 2.077 3.335 2.077 1.094 0 2.078-.109 3.662-.109 4.538 0 6.5.492 6.888 1.968m16.836 15.47h.548a8.476 8.476 0 0 0-1.2-4.208 15.626 15.626 0 0 0-1.259-1.969.907.907 0 0 0-.82-.436c-.219 0-.383.163-.219.436a31.2 31.2 0 0 1 1.8 3.5.844.844 0 0 0-.82.984 1.848 1.848 0 0 0 1.967 1.695M41.737 47.531a2.543 2.543 0 0 0-1.531-2.733 1.935 1.935 0 0 1 .711-.165 1.517 1.517 0 0 1 1.476 1.532 1.584 1.584 0 0 1-.656 1.366m35.04 38.484a2 2 0 0 0-1.8-.984 2.255 2.255 0 0 0-1.038.218c.054-.437.492-.929 1.367-.929a1.439 1.439 0 0 1 1.475 1.695m-.328 2.352a2.066 2.066 0 0 0-1.585-.711 1.829 1.829 0 0 0-1.531.657 1.366 1.366 0 0 1 1.476-1.476 1.522 1.522 0 0 1 1.64 1.53M37.583 62.29a3.121 3.121 0 0 1 2.3-1.8 3.624 3.624 0 0 1 .766-.82l-1.859-7.763a4.658 4.658 0 0 1-.384-1.859c0-.819.165-1.639.165-2.076 0-.383-.218-.492-.437-.492-.165 0-.274 0-.328.054v.22a2.044 2.044 0 0 1-2.023 2.241 2.251 2.251 0 0 1-2.246-2.245 2.207 2.207 0 0 1 2.241-2.188 2.4 2.4 0 0 1 .82.11 2.812 2.812 0 0 1 2.839-1.694 4.637 4.637 0 0 0-3.662-1.75 5.5 5.5 0 1 0-.164 10.989Zm8.473 11.753a3.7 3.7 0 0 0 2.513-1.257 47.1 47.1 0 0 1 4.811-4.375 4.623 4.623 0 0 1 2.513-.983 1.406 1.406 0 0 1 1.094.437l1.859-1.422a7.522 7.522 0 0 1-3.171-6.231c-2.952 1.585-5.083 3.772-7.544 5.848-.437.329-.656.492-1.038.492s-.711-.382-1.367-1.038a1.653 1.653 0 0 1-.656-1.257c0-.656.219-.875.219-1.75a2.657 2.657 0 0 0-2.678-2.733 2.236 2.236 0 0 0-2.187 1.367 2.449 2.449 0 0 0-2.406 2.35 2.029 2.029 0 0 0 .11.656 2.207 2.207 0 0 0-1.095 1.86 2.121 2.121 0 0 0 1.313 2.077 1.16 1.16 0 0 1-.164-.656.986.986 0 0 1 1.039-.929 1.45 1.45 0 0 1 1.2.6 11.563 11.563 0 0 0 1.8 1.969 17.133 17.133 0 0 0 2.46 1.586 1.679 1.679 0 0 1 .873 1.421 1.188 1.188 0 0 1-.983 1.094 1.512 1.512 0 0 0 1.477.875m-3.111-10.661a2.383 2.383 0 0 0-1.913-2.186 1.482 1.482 0 0 1 .875-.273 1.389 1.389 0 0 1 1.367 1.365 1.856 1.856 0 0 1-.329 1.094m6.068 28.754a1.337 1.337 0 0 1-.328-.874 1.2 1.2 0 0 1 1.312-1.148c1.2 0 1.858 1.312 3.444 1.312 1.8 0 2.678-1.312 4.318-1.312.821 0 1.969.492 1.969 1.53a.627.627 0 0 1-.165.438c1.859 0 3.17-1.586 3.17-4.21 0-3.663-.108-5.138-.163-7.161a2.439 2.439 0 0 0 2.568-3.007 1.958 1.958 0 0 1-1.311.492 1.136 1.136 0 0 1-1.149-1.2 7.8 7.8 0 0 1 .054-1.094l6.4-.164a2 2 0 0 1-1.038-1.749 1.174 1.174 0 0 1 .656-1.148 28.1 28.1 0 0 0-1.694-3.17 1.733 1.733 0 0 0-1.477-.985 25.329 25.329 0 0 0-6.888 1.035 3.521 3.521 0 0 0-2.569 3.661c0 2.078.711 5.741.656 11.48 0 .82-.218 1.094-.711 1.2a7.606 7.606 0 0 1-2.3.11c-.382-.056-.711-.328-.929-1.148a2.737 2.737 0 0 0-2.733-2.3 2.431 2.431 0 0 0-2.569 2.733 2.121 2.121 0 0 0-1.038 1.8 2.432 2.432 0 0 0 .492 1.531 2.146 2.146 0 0 0-.218.984 2.385 2.385 0 0 0 2.241 2.35m-7.707-27.264a2.007 2.007 0 0 0-1.861-1.037 3.343 3.343 0 0 0-.819.109 1.269 1.269 0 0 1 1.319-.82 1.373 1.373 0 0 1 1.365 1.749m9.567 21.156a2 2 0 0 0-1.8-.984 2.251 2.251 0 0 0-1.038.218c.054-.437.492-.929 1.367-.929a1.438 1.438 0 0 1 1.475 1.695m-4.647 4.756a2.162 2.162 0 0 1-.218-.985 2.279 2.279 0 0 1 .164-.874 3.338 3.338 0 0 1-.438-1.64 2.848 2.848 0 0 1 .93-2.077l-3.389-14.7a7.279 7.279 0 0 1-1.531-.984 16.389 16.389 0 0 1-1.913-1.967.845.845 0 0 0-.6-.328c-.328 0-.546.218-.437.656l.71 3.388 1.476 1.038 4.1 17.6Zm4.32-2.4a2.07 2.07 0 0 0-1.586-.711 1.83 1.83 0 0 0-1.531.657 1.368 1.368 0 0 1 1.477-1.476 1.522 1.522 0 0 1 1.641 1.53m-27.006 4.1 3.335-2.57 4.1-17.6 1.476-1.038 3.281-14.1-.711-3.28a7.507 7.507 0 0 1-2.132-.711Zm51.385-.328a1.344 1.344 0 0 1-.328-.874 1.2 1.2 0 0 1 1.312-1.148c1.2 0 1.859 1.312 3.444 1.312 1.8 0 2.679-1.312 4.318-1.312.821 0 1.969.492 1.969 1.53a.623.623 0 0 1-.164.438c1.859 0 3.17-1.586 3.17-4.21 0-3.5-.327-7.38-.711-11.261a2.549 2.549 0 0 0 1.913-2.46 2.67 2.67 0 0 0-.437-1.366 2.714 2.714 0 0 1-1.585.929 14.325 14.325 0 0 1-3.61.491 12.216 12.216 0 0 1-4.208-.491 5.261 5.261 0 0 0-1.859-3.5 8.6 8.6 0 0 0 4.154.82c7 0 11.316-4.7 11.316-10.058 0-3.882-2.46-5.685-4.7-7l-2.083 1.473c2.515 1.148 4.154 2.842 4.154 5.139a4.43 4.43 0 0 1-8.855.055 5.587 5.587 0 0 1 2.514-4.537c1.64-1.312 4.155-2.9 5.522-4.373a4.476 4.476 0 0 0 1.257-2.9 2.81 2.81 0 0 0 1.64-2.568 3.037 3.037 0 0 0-3.17-2.787 3.76 3.76 0 0 0-2.625 1.256 3.445 3.445 0 0 1 1.914 3.061 4.35 4.35 0 0 1-1.531 2.951c-1.257 1.258-2.9 2.187-4.7 3.663-2.187 1.8-3.5 3.936-3.5 6.341a6.429 6.429 0 0 0 6.614 6.451 5.706 5.706 0 0 0 3.117-.766c-1.312 1.531-3.771 2.3-6.341 2.3a8.225 8.225 0 0 1-5.41-1.532 7.568 7.568 0 0 1-2.569-5.576 41.791 41.791 0 0 1-3.831 1.914c-1.7.819-2.242 1.694-2.242 3.17 0 1.968 1.367 3.5 1.967 4.647a9.652 9.652 0 0 1 1.2 4.155c.329 3.335 2.242 4.866 5.631 4.866a43.628 43.628 0 0 0 4.373-.219 25.175 25.175 0 0 1 .711 4.7c0 .82-.219 1.094-.711 1.2a7.6 7.6 0 0 1-2.3.11c-.382-.056-.711-.328-.931-1.148a2.737 2.737 0 0 0-2.732-2.3 2.432 2.432 0 0 0-2.57 2.733 2.121 2.121 0 0 0-1.038 1.8 2.43 2.43 0 0 0 .492 1.531 2.142 2.142 0 0 0-.219.984 2.388 2.388 0 0 0 2.243 2.349" fill="#fff"/><path data-name="Path 21" d="M222.609 97.389h7.791v-2.575h-4.535v-1.828h4.384v-2.508h-4.384v-1.811h4.535v-2.575h-7.791Zm-11.362 0h8.871v-2.641h-4.884l4.8-6.28v-2.376h-8.688v2.638h4.619l-4.718 6.163Zm-7.875-4.651 1.113-4.17h.15l1.112 4.17Zm3.621 4.651h3.34l-3.389-11.3h-4.768l-3.373 11.3h3.339l.616-2.342h3.6Zm-15.315-6.08v-2.807h1.312a1.36 1.36 0 0 1 1.4 1.4 1.374 1.374 0 0 1-1.4 1.412h-1.312Zm-3.257 6.08h3.257v-3.971h.831l1.96 3.971h3.671l-2.076-3.488a2.956 2.956 0 0 0-.632-.8l.017-.067a3.489 3.489 0 0 0 2.408-3.223c0-2.027-1.609-3.721-4.252-3.721h-5.183Zm-8.355-6.08v-2.79h1.278a1.4 1.4 0 0 1 0 2.79h-1.278Zm-3.257 6.08h3.257V93.73h1.66c2.643 0 4.286-1.678 4.286-3.755a3.977 3.977 0 0 0-4.286-3.887h-4.917Zm-14.087 0h4.452l3.389-11.3h-3.655l-1.927 8.455h-.067l-1.926-8.455h-3.66Zm-14.037 0h3.256V88.73h2.808v-2.641h-8.888v2.641h2.824v8.655Zm-9.735.267c2.658 0 4.867-1.28 4.867-4.435v-7.127h-3.256v6.829c0 1.278-.7 1.843-1.611 1.843s-1.61-.565-1.61-1.843v-6.829h-3.256v7.127c0 3.156 2.209 4.435 4.866 4.435m-14.7-.267h4.451l3.39-11.3h-3.655l-1.927 8.455h-.067l-1.927-8.455h-3.657Zm-7.891.183a7.169 7.169 0 0 0 3.157-.7V94.03a5.04 5.04 0 0 1-2.576.648 2.975 2.975 0 1 1 .184-5.947 5.005 5.005 0 0 1 2.375.548v-2.808a6.519 6.519 0 0 0-2.824-.531c-3.339 0-6.18 2.192-6.18 5.8a5.571 5.571 0 0 0 5.864 5.83m-1.744-12.161h3.421l2.277-2.558h-2.825l-1.129 1.23h-.066l-1.13-1.23h-2.824Z" fill="#0065bd"/><path data-name="Path 22" d="M224.47 80.473h3.257v-11.3h-3.257Zm-.1-11.977h2.757l2.341-2.559h-3.786Zm-6.479 11.977h3.261v-11.3h-3.26Zm-6.911.266a8.831 8.831 0 0 0 4.087-.963v-5h-3.173v3.055a3.5 3.5 0 0 1-.732.082 2.767 2.767 0 0 1-2.657-3.089c0-2.293 1.228-3.422 3.338-3.422a5.98 5.98 0 0 1 2.774.729v-2.657a7.738 7.738 0 0 0-3.256-.715c-3.838 0-6.412 2.375-6.412 6.064a5.815 5.815 0 0 0 6.03 5.914m-13.655-2.891c-1.444 0-2.175-1.163-2.175-3.023s.731-3.023 2.175-3.023c1.462 0 2.144 1.162 2.144 3.023s-.683 3.023-2.144 3.023m0 2.891c3.372 0 5.631-2.143 5.631-5.914s-2.259-5.915-5.631-5.915c-3.355 0-5.665 2.143-5.665 5.915s2.309 5.914 5.665 5.914m-14.12-.266h7.293v-2.674h-4.037v-8.622h-3.256Zm-8.289-2.624c-1.446 0-2.177-1.163-2.177-3.023s.731-3.023 2.177-3.023c1.462 0 2.143 1.162 2.143 3.023s-.681 3.023-2.143 3.023m0 2.891c3.372 0 5.631-2.143 5.631-5.914s-2.259-5.915-5.631-5.915c-3.356 0-5.666 2.143-5.666 5.915s2.309 5.914 5.666 5.914m-19.023-.266h3.26v-6.778h.052l3.421 6.778h3.971v-11.3h-3.256v6.746h-.051l-3.388-6.746h-4Zm-13.171-11.3v11.3h3.256v-4.419h3.338v4.419h3.256v-11.3h-3.256v4.32h-3.338v-4.32h-3.255Zm-5.615 11.479a7.175 7.175 0 0 0 3.156-.7v-2.842a5.025 5.025 0 0 1-2.575.648 2.975 2.975 0 1 1 .184-5.947 5.006 5.006 0 0 1 2.374.548V69.55a6.523 6.523 0 0 0-2.823-.519c-3.338 0-6.18 2.194-6.18 5.8a5.57 5.57 0 0 0 5.864 5.83m-15.964-.183h7.791v-2.575h-4.535v-1.832h4.385v-2.509h-4.385v-1.811h4.535v-2.575h-7.791Zm-8.19 0h3.256v-8.655h2.806v-2.642h-8.887v2.642h2.825Z" fill="#0065bd"/><path data-name="Path 23" d="M237.244 52.26v11.3h3.256v-4.419h3.339v4.419h3.256v-11.3h-3.256v4.32H240.5v-4.32Zm-5.615 11.478a7.163 7.163 0 0 0 3.157-.7v-2.837a5.042 5.042 0 0 1-2.576.648 2.975 2.975 0 1 1 .183-5.947 5.026 5.026 0 0 1 2.376.548v-2.808a6.533 6.533 0 0 0-2.825-.531c-3.339 0-6.179 2.192-6.179 5.8a5.571 5.571 0 0 0 5.864 5.831m-11.778-.183h3.256v-11.3h-3.256Zm-.1-11.977h2.759l2.342-2.558h-3.788Zm-13.919 11.977h3.255v-6.778h.051l3.42 6.778h3.971v-11.3h-3.252v6.744h-.051l-3.388-6.744h-4v11.3Zm-5.615.183a7.17 7.17 0 0 0 3.157-.7v-2.841a5.042 5.042 0 0 1-2.576.648 2.975 2.975 0 1 1 .184-5.947 5.024 5.024 0 0 1 2.375.548v-2.808a6.537 6.537 0 0 0-2.825-.531c-3.338 0-6.179 2.192-6.179 5.8a5.571 5.571 0 0 0 5.864 5.831m-1.744-12.16h3.423l2.275-2.558h-2.824l-1.129 1.229h-.068l-1.13-1.229h-2.823Zm-12.327 7.326 1.112-4.17h.151l1.113 4.17Zm3.622 4.651h3.338l-3.389-11.3h-4.768l-3.372 11.297h3.338l.616-2.342h3.606Zm-22.261 0h3.107v-6.894h.049l2.924 4.8h.232l2.791-4.817h.051v6.91h3.172v-11.3h-3.771l-2.325 4h-.051l-2.324-4h-3.855Zm-8.822-6.08v-2.81h1.313a1.403 1.403 0 0 1 0 2.807Zm-3.256 6.08h3.256V59.59h.831l1.96 3.969h3.672l-2.077-3.488a3.018 3.018 0 0 0-.632-.8l.017-.066a3.492 3.492 0 0 0 2.409-3.223c0-2.027-1.611-3.72-4.253-3.72h-5.183Zm-8.289-2.624c-1.446 0-2.177-1.163-2.177-3.023s.731-3.023 2.177-3.023c1.462 0 2.143 1.163 2.143 3.023s-.681 3.023-2.143 3.023m0 2.891c3.372 0 5.631-2.142 5.631-5.914s-2.259-5.914-5.631-5.914c-3.355 0-5.664 2.144-5.664 5.914s2.309 5.914 5.664 5.914M131.756 52.26v11.3h3.256v-4.368h4.419v-2.509h-4.419v-1.852h4.465v-2.57h-7.726Zm-14.02 11.3h3.256v-6.778h.051l3.422 6.778h3.969v-11.3h-3.257v6.744h-.05l-3.389-6.744h-4v11.3Zm-6.578 0h3.256v-11.3h-3.256Z" fill="#0065bd"/><path data-name="Path 24" d="m178.388 41.989 1.112-4.17h.15l1.113 4.17Zm3.622 4.652h3.338l-3.389-11.3h-4.768l-3.372 11.3h3.338l.62-2.342h3.6Zm-14.3 0h3.255v-8.656h2.808v-2.641h-8.896v2.641h2.825v8.656Zm-9.9 0h7.294v-2.675h-4.037v-8.622h-3.256v11.3Zm-8.107.265c2.658 0 4.868-1.279 4.868-4.435v-7.127h-3.257v6.828c0 1.279-.7 1.843-1.612 1.843s-1.612-.564-1.612-1.843v-6.828h-3.256v7.127c0 3.156 2.209 4.435 4.867 4.435m-6.4-.265-3.824-5.831 3.771-5.466h-3.97l-3.158 5.2v-5.2h-3.255v11.3h3.255v-5.435l3.273 5.433h3.9Zm-19.136-4.652 1.113-4.17h.15l1.114 4.17Zm3.621 4.652h3.34l-3.389-11.3h-4.767l-3.372 11.3h3.338l.616-2.342h3.6Zm-16.628-11.3v11.3h3.256v-4.369h4.419v-2.509h-4.419v-1.844h4.468v-2.575Z" fill="#0065bd"/></g></g></svg>